<svg width="189" height="55" viewBox="0 0 189 55" fill="none" xmlns="http://www.w3.org/2000/svg">
<path d="M87.152 21.24C85.84 21.24 84.632 21.024 83.528 20.592C82.424 20.16 81.464 19.56 80.648 18.792C79.832 18.008 79.2 17.096 78.752 16.056C78.304 15 78.08 13.848 78.08 12.6C78.08 11.352 78.304 10.208 78.752 9.168C79.2 8.112 79.832 7.2 80.648 6.432C81.464 5.648 82.424 5.04 83.528 4.608C84.632 4.176 85.832 3.96 87.128 3.96C88.44 3.96 89.64 4.176 90.728 4.608C91.832 5.04 92.792 5.648 93.608 6.432C94.424 7.2 95.056 8.112 95.504 9.168C95.952 10.208 96.176 11.352 96.176 12.6C96.176 13.848 95.952 15 95.504 16.056C95.056 17.112 94.424 18.024 93.608 18.792C92.792 19.56 91.832 20.16 90.728 20.592C89.64 21.024 88.448 21.24 87.152 21.24ZM87.128 18.504C87.976 18.504 88.76 18.36 89.48 18.072C90.2 17.784 90.824 17.376 91.352 16.848C91.88 16.304 92.288 15.68 92.576 14.976C92.88 14.256 93.032 13.464 93.032 12.6C93.032 11.736 92.88 10.952 92.576 10.248C92.288 9.528 91.88 8.904 91.352 8.376C90.824 7.832 90.2 7.416 89.48 7.128C88.76 6.84 87.976 6.696 87.128 6.696C86.28 6.696 85.496 6.84 84.776 7.128C84.072 7.416 83.448 7.832 82.904 8.376C82.376 8.904 81.96 9.528 81.656 10.248C81.368 10.952 81.224 11.736 81.224 12.6C81.224 13.448 81.368 14.232 81.656 14.952C81.96 15.672 82.376 16.304 82.904 16.848C83.432 17.376 84.056 17.784 84.776 18.072C85.496 18.36 86.28 18.504 87.128 18.504ZM101.743 21V10.008L102.439 10.728H97.2305V8.184H109.231V10.728H104.047L104.743 10.008V21H101.743ZM115.252 21.216C116.436 21.216 117.484 21.048 118.396 20.712C119.324 20.376 120.052 19.912 120.58 19.32C121.108 18.712 121.372 18.016 121.372 17.232C121.372 16.256 120.964 15.488 120.148 14.928C119.332 14.352 118.212 14.064 116.788 14.064L116.692 14.712C117.524 14.712 118.26 14.576 118.9 14.304C119.556 14.032 120.068 13.656 120.436 13.176C120.82 12.68 121.012 12.128 121.012 11.52C121.012 10.784 120.748 10.144 120.22 9.6C119.692 9.056 118.972 8.64 118.06 8.352C117.148 8.064 116.108 7.944 114.94 7.992C114.172 8.008 113.396 8.12 112.612 8.328C111.844 8.52 111.052 8.8 110.236 9.168L111.004 11.376C111.708 11.072 112.396 10.84 113.068 10.68C113.756 10.52 114.42 10.44 115.06 10.44C115.668 10.44 116.188 10.504 116.62 10.632C117.052 10.744 117.38 10.92 117.604 11.16C117.844 11.384 117.964 11.648 117.964 11.952C117.964 12.256 117.868 12.52 117.676 12.744C117.484 12.968 117.204 13.136 116.836 13.248C116.484 13.36 116.052 13.416 115.54 13.416H113.308V15.432H115.78C116.596 15.432 117.22 15.568 117.652 15.84C118.1 16.096 118.324 16.48 118.324 16.992C118.324 17.344 118.188 17.656 117.916 17.928C117.66 18.2 117.292 18.408 116.812 18.552C116.332 18.68 115.756 18.744 115.084 18.744C114.3 18.744 113.516 18.648 112.732 18.456C111.948 18.264 111.244 17.992 110.62 17.64L109.78 19.872C110.548 20.304 111.404 20.64 112.348 20.88C113.308 21.104 114.276 21.216 115.252 21.216ZM137.397 21V8.184H140.397V21H137.397ZM130.701 12.408C132.349 12.408 133.597 12.776 134.445 13.512C135.309 14.248 135.741 15.288 135.741 16.632C135.741 18.024 135.261 19.112 134.301 19.896C133.357 20.664 132.013 21.04 130.269 21.024L124.461 21V8.184H127.461V12.384L130.701 12.408ZM130.005 18.816C130.885 18.832 131.557 18.648 132.021 18.264C132.485 17.88 132.717 17.32 132.717 16.584C132.717 15.848 132.485 15.32 132.021 15C131.573 14.664 130.901 14.488 130.005 14.472L127.461 14.448V18.792L130.005 18.816ZM144.43 21V8.184H150.694C152.246 8.184 153.462 8.472 154.342 9.048C155.238 9.624 155.686 10.44 155.686 11.496C155.686 12.536 155.27 13.352 154.438 13.944C153.606 14.52 152.502 14.808 151.126 14.808L151.486 14.064C153.038 14.064 154.19 14.352 154.942 14.928C155.71 15.488 156.094 16.312 156.094 17.4C156.094 18.536 155.67 19.424 154.822 20.064C153.974 20.688 152.686 21 150.958 21H144.43ZM147.286 18.816H150.718C151.534 18.816 152.15 18.688 152.566 18.432C152.982 18.16 153.19 17.752 153.19 17.208C153.19 16.632 152.998 16.208 152.614 15.936C152.23 15.664 151.63 15.528 150.814 15.528H147.286V18.816ZM147.286 13.536H150.43C151.198 13.536 151.774 13.4 152.158 13.128C152.558 12.84 152.758 12.44 152.758 11.928C152.758 11.4 152.558 11.008 152.158 10.752C151.774 10.496 151.198 10.368 150.43 10.368H147.286V13.536ZM172.225 21V8.184H175.225V21H172.225ZM165.529 12.408C167.177 12.408 168.425 12.776 169.273 13.512C170.137 14.248 170.569 15.288 170.569 16.632C170.569 18.024 170.089 19.112 169.129 19.896C168.185 20.664 166.841 21.04 165.097 21.024L159.289 21V8.184H162.289V12.384L165.529 12.408ZM164.833 18.816C165.713 18.832 166.385 18.648 166.849 18.264C167.313 17.88 167.545 17.32 167.545 16.584C167.545 15.848 167.313 15.32 166.849 15C166.401 14.664 165.729 14.488 164.833 14.472L162.289 14.448V18.792L164.833 18.816ZM79.376 45V28.2H81.92L89.288 40.464H87.92L95.168 28.2H97.712L97.76 45H94.784L94.76 32.832H95.384L89.24 43.08H87.848L81.608 32.832H82.328V45H79.376ZM107.837 45.168C106.525 45.168 105.357 44.888 104.333 44.328C103.309 43.752 102.501 42.968 101.909 41.976C101.317 40.984 101.021 39.856 101.021 38.592C101.021 37.312 101.317 36.184 101.909 35.208C102.501 34.216 103.309 33.44 104.333 32.88C105.357 32.32 106.525 32.04 107.837 32.04C109.165 32.04 110.341 32.32 111.365 32.88C112.405 33.44 113.213 34.208 113.789 35.184C114.381 36.16 114.677 37.296 114.677 38.592C114.677 39.856 114.381 40.984 113.789 41.976C113.213 42.968 112.405 43.752 111.365 44.328C110.341 44.888 109.165 45.168 107.837 45.168ZM107.837 42.6C108.573 42.6 109.229 42.44 109.805 42.12C110.381 41.8 110.829 41.336 111.149 40.728C111.485 40.12 111.653 39.408 111.653 38.592C111.653 37.76 111.485 37.048 111.149 36.456C110.829 35.848 110.381 35.384 109.805 35.064C109.229 34.744 108.581 34.584 107.861 34.584C107.125 34.584 106.469 34.744 105.893 35.064C105.333 35.384 104.885 35.848 104.549 36.456C104.213 37.048 104.045 37.76 104.045 38.592C104.045 39.408 104.213 40.12 104.549 40.728C104.885 41.336 105.333 41.8 105.893 42.12C106.469 42.44 107.117 42.6 107.837 42.6ZM123.473 45.168C122.129 45.168 120.929 44.888 119.873 44.328C118.833 43.752 118.017 42.968 117.425 41.976C116.833 40.984 116.537 39.856 116.537 38.592C116.537 37.312 116.833 36.184 117.425 35.208C118.017 34.216 118.833 33.44 119.873 32.88C120.929 32.32 122.129 32.04 123.473 32.04C124.721 32.04 125.817 32.296 126.761 32.808C127.721 33.304 128.449 34.04 128.945 35.016L126.641 36.36C126.257 35.752 125.785 35.304 125.225 35.016C124.681 34.728 124.089 34.584 123.449 34.584C122.713 34.584 122.049 34.744 121.457 35.064C120.865 35.384 120.401 35.848 120.065 36.456C119.729 37.048 119.561 37.76 119.561 38.592C119.561 39.424 119.729 40.144 120.065 40.752C120.401 41.344 120.865 41.8 121.457 42.12C122.049 42.44 122.713 42.6 123.449 42.6C124.089 42.6 124.681 42.456 125.225 42.168C125.785 41.88 126.257 41.432 126.641 40.824L128.945 42.168C128.449 43.128 127.721 43.872 126.761 44.4C125.817 44.912 124.721 45.168 123.473 45.168ZM140.778 45L136.146 38.856L138.594 37.344L144.306 45H140.778ZM131.586 45V32.184H134.586V45H131.586ZM133.698 39.864V37.368H138.042V39.864H133.698ZM138.882 38.952L136.074 38.616L140.778 32.184H143.994L138.882 38.952ZM146.422 45V32.184H152.686C154.238 32.184 155.454 32.472 156.334 33.048C157.23 33.624 157.678 34.44 157.678 35.496C157.678 36.536 157.262 37.352 156.43 37.944C155.598 38.52 154.494 38.808 153.118 38.808L153.478 38.064C155.03 38.064 156.182 38.352 156.934 38.928C157.702 39.488 158.086 40.312 158.086 41.4C158.086 42.536 157.662 43.424 156.814 44.064C155.966 44.688 154.678 45 152.95 45H146.422ZM149.278 42.816H152.71C153.526 42.816 154.142 42.688 154.558 42.432C154.974 42.16 155.182 41.752 155.182 41.208C155.182 40.632 154.99 40.208 154.606 39.936C154.222 39.664 153.622 39.528 152.806 39.528H149.278V42.816ZM149.278 37.536H152.422C153.19 37.536 153.766 37.4 154.15 37.128C154.55 36.84 154.75 36.44 154.75 35.928C154.75 35.4 154.55 35.008 154.15 34.752C153.766 34.496 153.19 34.368 152.422 34.368H149.278V37.536ZM169.058 45V42.408L168.89 41.856V37.32C168.89 36.44 168.626 35.76 168.098 35.28C167.57 34.784 166.77 34.536 165.698 34.536C164.978 34.536 164.266 34.648 163.562 34.872C162.874 35.096 162.29 35.408 161.81 35.808L160.634 33.624C161.322 33.096 162.138 32.704 163.082 32.448C164.042 32.176 165.034 32.04 166.058 32.04C167.914 32.04 169.346 32.488 170.354 33.384C171.378 34.264 171.89 35.632 171.89 37.488V45H169.058ZM165.026 45.168C164.066 45.168 163.226 45.008 162.506 44.688C161.786 44.352 161.226 43.896 160.826 43.32C160.442 42.728 160.25 42.064 160.25 41.328C160.25 40.608 160.418 39.96 160.754 39.384C161.106 38.808 161.674 38.352 162.458 38.016C163.242 37.68 164.282 37.512 165.578 37.512H169.298V39.504H165.794C164.77 39.504 164.082 39.672 163.73 40.008C163.378 40.328 163.202 40.728 163.202 41.208C163.202 41.752 163.418 42.184 163.85 42.504C164.282 42.824 164.882 42.984 165.65 42.984C166.386 42.984 167.042 42.816 167.618 42.48C168.21 42.144 168.634 41.648 168.89 40.992L169.394 42.792C169.106 43.544 168.586 44.128 167.834 44.544C167.098 44.96 166.162 45.168 165.026 45.168Z" fill="#360ED9"/>
<path d="M0 15C0 6.71572 6.71573 0 15 0H55.7143C63.9986 0 70.7143 6.71573 70.7143 15V29.7125C70.7143 37.9968 63.9986 44.7125 55.7143 44.7125H0V15Z" fill="#360ED9"/>
<rect x="13.5714" y="27.0985" width="2.14286" height="14.1944" rx="1.07143" fill="white"/>
<rect x="17.8572" y="30.9697" width="2.14286" height="10.3232" rx="1.07143" fill="white"/>
<rect x="22.1428" y="30.9697" width="2.14286" height="10.3232" rx="1.07143" fill="white"/>
<rect x="25.7142" y="23.2273" width="2.14286" height="18.0657" rx="1.07143" fill="white"/>
<rect x="30" y="14.8397" width="2.14286" height="26.4533" rx="1.07143" fill="white"/>
<rect x="33.9919" y="3.51315" width="2.37679" height="37.9287" rx="1.18839" fill="white"/>
<rect x="42.1428" y="23.2273" width="2.14286" height="18.0657" rx="1.07143" fill="white"/>
<rect x="37.8572" y="14.8397" width="2.14286" height="26.4533" rx="1.07143" fill="white"/>
<rect x="46.4286" y="30.9697" width="2.14286" height="10.3232" rx="1.07143" fill="white"/>
<rect x="50" y="30.9697" width="2.14286" height="10.3232" rx="1.07143" fill="white"/>
<rect x="54.2858" y="27.0985" width="2.14286" height="14.1944" rx="1.07143" fill="white"/>
<path d="M0 53.2673V44H14.2857C14.2857 44 3.1746 53.6237 2.1164 54.3366C1.0582 55.0495 0.111931 54.7856 0 53.2673Z" fill="#360ED9"/>
</svg>
