<svg width="65" height="49" viewBox="0 0 65 49" fill="none" xmlns="http://www.w3.org/2000/svg">
<path d="M57.487 48.5979H7.51185C3.36914 48.5979 0 45.4361 0 41.5484V12.9586C0 9.07084 3.36914 5.90903 7.51185 5.90903H17.7093L18.6019 3.08324C18.9662 1.53697 20.4724 0.40205 22.2439 0.40205H42.7563C44.4777 0.40205 46.0013 1.53112 46.4046 3.09731L46.4283 3.19366L47.242 5.90885H57.4881C61.6309 5.90885 65 9.07066 65 12.9584V41.548C64.9988 45.4361 61.6285 48.5979 57.487 48.5979ZM7.51185 8.25895C4.74992 8.25895 2.50402 10.3668 2.50402 12.9586V41.5482C2.50402 44.1402 4.75011 46.2478 7.51185 46.2478H57.487C60.2489 46.2478 62.4948 44.14 62.4948 41.5482V12.9586C62.4948 10.3666 60.2487 8.25895 57.487 8.25895H45.3454L43.9746 3.67081C43.8481 3.13735 43.336 2.75087 42.7551 2.75087H22.2426C21.6529 2.75087 21.1521 3.12912 21.0231 3.67209L19.5759 8.25895H7.51185V8.25895ZM32.5014 41.4953C23.7389 41.4953 16.61 34.8065 16.61 26.5843C16.61 18.361 23.7387 11.6721 32.5014 11.6721C41.2615 11.6721 48.389 18.3621 48.389 26.5843C48.3888 34.8054 41.2613 41.4953 32.5014 41.4953ZM32.5014 14.0208C25.1196 14.0208 19.114 19.6557 19.114 26.5832C19.114 33.5107 25.1198 39.1443 32.5014 39.1443C39.8817 39.1443 45.885 33.5094 45.885 26.5832C45.8848 19.6557 39.8804 14.0208 32.5014 14.0208ZM55.8707 12.6202C54.5937 12.6202 53.5607 13.5919 53.5607 14.7881C53.5607 15.9853 54.5935 16.9557 55.8707 16.9557C57.1465 16.9557 58.1793 15.9851 58.1793 14.7881C58.1781 13.5919 57.1451 12.6202 55.8707 12.6202Z" fill="#848484"/>
</svg>
